<svg xmlns="http://www.w3.org/2000/svg" viewBox="0 0 100 100" fill="none">
  <!-- Duck silhouette: head + body merged path -->
  <path fill="#FFD11A" d="
    M 50 14
    C 50 11 53 8 57 9
    C 60 8 62 11 61 14
    C 70 13 79 20 81 31
    C 83 42 78 52 70 56
    C 73 63 72 74 64 80
    C 57 86 44 87 33 82
    C 22 77 16 65 18 54
    C 20 47 25 43 30 41
    L 24 38
    C 18 34 19 25 25 23
    C 30 21 37 25 37 31
    C 40 25 43 17 47 14
    C 48 12 49 13 50 14 Z
  "/>
  <!-- Eye -->
  <circle cx="64" cy="28" r="6" fill="#0F0F0F"/>
  <!-- Upper beak -->
  <path fill="#E05A00" d="M 75 34 C 82 30 92 33 94 38 C 92 40 82 40 75 39 Z"/>
  <!-- Lower beak -->
  <path fill="#E05A00" d="M 75 41 C 82 41 91 44 92 49 C 90 51 81 49 75 47 Z"/>
</svg>
